/vscmnt/brussel_pixiu_data/_data_brussel/112/vsc11236/PredSimResults/SUBJ10mtu3D/SUBJ10mtu3D_12829358.mot
version=1
nRows=9
nColumns=50
inDegrees=yes
endheader
                time	         pelvis_tilt	         pelvis_list	     pelvis_rotation	           pelvis_tx	           pelvis_ty	           pelvis_tz	       hip_flexion_r	     hip_adduction_r	      hip_rotation_r	        knee_angle_r	       ankle_angle_r	         mtp_angle_r	       hip_flexion_l	     hip_adduction_l	      hip_rotation_l	        knee_angle_l	       ankle_angle_l	         mtp_angle_l	    lumbar_extension	      lumbar_bending	     lumbar_rotation	 ercspn_r/activation	 intobl_r/activation	 extobl_r/activation	    abd_r/activation	    add_r/activation	hamstrings_r/activation	bifemsh_r/activation	glut_max_r/activation	iliopsoas_r/activation	rect_fem_r/activation	  vasti_r/activation	gastroc_r/activation	 soleus_r/activation	tib_ant_r/activation	 ercspn_l/activation	 intobl_l/activation	 extobl_l/activation	    abd_l/activation	    add_l/activation	hamstrings_l/activation	bifemsh_l/activation	glut_max_l/activation	iliopsoas_l/activation	rect_fem_l/activation	  vasti_l/activation	gastroc_l/activation	 soleus_l/activation	tib_ant_l/activation	
          1.10068721	         -3.62536204	         -2.94562143	          9.59618742	          1.33183152	          0.82773047	         -0.01234517	         27.79644977	         -0.48521377	         -6.46224920	         -3.45032034	          7.13467172	          0.25432799	        -15.04301616	         -3.57679654	          5.01138502	         -8.10470552	          9.11936487	         25.50582589	         -8.53454135	          1.51857740	         -3.94379319	          0.08938678	          0.16428610	          0.02042190	          0.01932786	          0.10350744	          0.03449369	          0.16385989	          0.01000388	          0.06463620	          0.01001279	          0.01000622	          0.01001556	          0.01000518	          0.26227138	          0.03401335	          0.01000185	          0.01000311	          0.03847587	          0.01864132	          0.01913044	          0.12799372	          0.02747178	          0.29904925	          0.01003542	          0.01000708	          0.21333284	          0.22678078	          0.01778822	
          1.11169408	         -3.68947795	         -2.78590164	          9.40230681	          1.34734201	          0.82618014	         -0.01212133	         27.78471412	         -0.26982949	         -5.34595321	         -4.98398414	          6.84551157	          0.25381781	        -15.07223592	         -3.37679105	          4.33023721	         -9.98779576	          8.47934838	         27.11974817	         -8.32525644	          1.87955019	         -4.12945420	          0.07553211	          0.13970789	          0.01725668	          0.01633274	          0.14381977	          0.03688051	          0.13847814	          0.05172916	          0.05461729	          0.01001490	          0.01000456	          0.01892953	          0.01656748	          0.26595387	          0.07438832	          0.01000382	          0.01001987	          0.03251175	          0.05031277	          0.01637244	          0.10815441	          0.02321358	          0.30231897	          0.01001738	          0.01048506	          0.18026412	          0.21094791	          0.01503094	
          1.12270095	         -3.73866916	         -2.63601842	          9.15293312	          1.36311700	          0.82473683	         -0.01184887	         27.61283168	         -0.07194943	         -4.26350497	         -6.47436886	          6.51643529	          0.24467904	        -14.96346706	         -3.17763610	          3.59041771	        -12.17208217	          7.75133154	         28.62109049	         -8.10168962	          2.26639864	         -4.28956589	          0.07321065	          0.11805519	          0.01458215	          0.07145642	          0.13393979	          0.04528076	          0.11702518	          0.05432668	          0.04615134	          0.01000460	          0.01000133	          0.01599629	          0.01400003	          0.30460387	          0.09573692	          0.01000123	          0.01000470	          0.02747213	          0.04251754	          0.01384189	          0.09139045	          0.01961539	          0.29163735	          0.01002672	          0.01001009	          0.15232128	          0.18522397	          0.01270111	
          1.13370783	         -3.77450830	         -2.48893474	          8.84841754	          1.37895396	          0.82358047	         -0.01148311	         27.33500872	          0.14214163	         -3.26980205	         -7.77517113	          6.09089277	          0.23324478	        -14.64122945	         -2.97807532	          2.79669017	        -14.74816895	          6.90619913	         29.90602641	         -7.88595750	          2.66161419	         -4.42382890	          0.08232224	          0.09975609	          0.01232237	          0.11550055	          0.15048725	          0.04143667	          0.09888948	          0.07609540	          0.03899768	          0.01000776	          0.01000822	          0.01351853	          0.01183307	          0.32317404	          0.12835390	          0.01000177	          0.01000407	          0.02321369	          0.04739215	          0.01250919	          0.07722519	          0.01657496	          0.27676465	          0.01001609	          0.01187993	          0.12870984	          0.15651337	          0.01073257	
          1.14471470	         -3.79718899	         -2.34897703	          8.49374312	          1.39469341	          0.82286737	         -0.01103019	         27.02677507	          0.37819374	         -2.37715804	         -9.03326175	          5.70072436	          0.22166079	        -14.05968795	         -2.79036292	          1.93966217	        -17.75639083	          5.93826586	         30.79020844	         -7.69067771	          3.06732046	         -4.53269754	          0.07740963	          0.08429335	          0.01041342	          0.13598290	          0.16223645	          0.04093294	          0.08356491	          0.07772832	          0.03295290	          0.01000683	          0.04068570	          0.01142556	          0.01000951	          0.34608075	          0.14806888	          0.01000196	          0.01000404	          0.01961536	          0.06570218	          0.01188556	          0.06525608	          0.01400581	          0.25337340	          0.01000755	          0.01004200	          0.10875844	          0.13225236	          0.01000101	
          1.15572157	         -3.80759685	         -2.21351978	          8.09046589	          1.41025123	          0.82269755	         -0.01050171	         26.67648348	          0.62770807	         -1.57960544	        -10.22799405	          5.40904409	          0.20834647	        -13.19014698	         -2.62440269	          1.00385112	        -21.21455369	          4.82424248	         31.10795519	         -7.52179915	          3.47762438	         -4.61623076	          0.06541968	          0.07122741	          0.01000354	          0.14383769	          0.14796656	          0.04275015	          0.07061678	          0.06568648	          0.02784513	          0.01000680	          0.08680069	          0.01001297	          0.01001739	          0.35408385	          0.16041639	          0.01000218	          0.01000346	          0.01657481	          0.07314962	          0.01009270	          0.05514312	          0.01183496	          0.21706460	          0.01000610	          0.01000232	          0.09189973	          0.11175193	          0.01000086	
          1.16672844	         -3.80772470	         -2.07658754	          7.63815208	          1.42558251	          0.82314347	         -0.00991369	         26.23341389	          0.87792726	         -0.86291091	        -11.27011049	          5.25725894	          0.19501951	        -12.03897161	         -2.49161081	         -0.00918628	        -25.05315068	          3.42937157	         30.85148988	         -7.38253438	          3.88357048	         -4.67409353	          0.05528035	          0.06018674	          0.01000393	          0.14748696	          0.12503494	          0.04476393	          0.05967638	          0.05550888	          0.02352912	          0.01000611	          0.13209481	          0.01001061	          0.01000995	          0.35481427	          0.16612476	          0.01000118	          0.01000441	          0.01400558	          0.08818993	          0.01003032	          0.04659961	          0.01000091	          0.18341873	          0.01000351	          0.01000075	          0.07765432	          0.09442925	          0.01000650	
          1.17773532	         -3.79998210	         -1.92698208	          7.13403037	          1.44064400	          0.82424010	         -0.00929369	         25.65555100	          1.10988977	         -0.21554055	        -12.07864174	          5.24788642	          0.18509380	        -10.63539437	         -2.39441380	         -1.09525431	        -29.16601427	          1.72795273	         29.87486715	         -7.27719846	          4.27340295	         -4.70323998	          0.04671196	          0.05085742	          0.01000737	          0.15391148	          0.10565442	          0.04505392	          0.05043307	          0.04690621	          0.01988217	          0.01000460	          0.13606546	          0.01181288	          0.01310882	          0.34130498	          0.16483461	          0.01016832	          0.01000536	          0.01183465	          0.09091684	          0.01402645	          0.03938034	          0.01000086	          0.15498774	          0.01000292	          0.01000120	          0.06561715	          0.07979177	          0.04526737	
          1.18874219	         -3.78545524	         -1.75884224	          6.58638732	          1.45538190	          0.82588184	         -0.00866978	         24.96893396	          1.30932745	          0.38543469	        -12.68602010	          5.34084256	          0.18091619	         -9.02921285	         -2.33946901	         -2.24710431	        -33.47379076	          0.02508632	         27.76098269	         -7.21081113	          4.63969558	         -4.70742221	          0.03947162	          0.04297429	          0.01000558	          0.16041983	          0.08927747	          0.04505157	          0.04262144	          0.03964788	          0.01680053	          0.01000505	          0.15025316	          0.01011713	          0.01134938	          0.32871231	          0.18080060	          0.04840797	          0.01000627	          0.01000059	          0.07682420	          0.01185513	          0.03328217	          0.01000091	          0.13096448	          0.01001070	          0.01000197	          0.05544597	          0.06742328	          0.14937962	
